<svg height="512pt" viewBox="-41 0 512 512.00584" width="512pt" xmlns="http://www.w3.org/2000/svg"><path d="m96.003906 512.003906h45.714844c2.523438 0 4.570312-2.042968 4.570312-4.570312v-77.714844c0-5.046875 4.09375-9.140625 9.140626-9.140625h77.714843c2.527344 0 4.574219-2.046875 4.574219-4.574219v-45.710937c0-2.527344-2.046875-4.574219-4.574219-4.574219h-77.714843c-5.046876 0-9.140626-4.09375-9.140626-9.140625v-77.714844c0-2.523437-2.046874-4.570312-4.570312-4.570312h-45.714844c-2.527344 0-4.574218 2.046875-4.574218 4.570312v77.714844c0 5.046875-4.089844 9.140625-9.140626 9.140625h-77.714843c-2.523438 0-4.57031275 2.046875-4.57031275 4.574219v45.710937c0 2.527344 2.04687475 4.574219 4.57031275 4.574219h77.714843c5.050782 0 9.140626 4.09375 9.140626 9.140625v77.714844c0 2.527344 2.046874 4.570312 4.574218 4.570312zm0 0"/><path d="m347.429688 96.003906c0 2.527344 2.046874 4.574219 4.574218 4.574219h74.695313l-79.90625-92.433594zm0 0"/><path d="m419.476562 384.003906c5.449219.1875 10.023438-4.0625 10.242188-9.507812v-255.632813h-77.714844c-12.554687 0-22.757812-10.121093-22.859375-22.675781l-.640625-96.18359375h-190.261718c-5.445313-.18359425-10.019532 4.06640575-10.238282 9.51171875v246.488281h13.714844c12.621094 0 22.855469 10.234375 22.855469 22.859375v68.570313h68.570312c12.625 0 22.859375 10.234375 22.859375 22.859375v13.710937zm0 0"/></svg>