<?xml version="1.0" encoding="iso-8859-1"?>
<!-- Generator: Adobe Illustrator 18.1.1, SVG Export Plug-In . SVG Version: 6.00 Build 0)  -->
<svg version="1.1" id="Capa_1" xmlns="http://www.w3.org/2000/svg" xmlns:xlink="http://www.w3.org/1999/xlink" x="0px" y="0px"
	 viewBox="0 0 32 32" style="enable-background:new 0 0 32 32;" xml:space="preserve">
<g>
	<g>
		<path style="fill:#010002;" d="M24,14.059V5.584L18.414,0H0v32h24v-0.059c4.5-0.498,8-4.309,8-8.94
			C32,18.368,28.5,14.557,24,14.059z M17.998,2.413L21.586,6h-3.588C17.998,6,17.998,2.413,17.998,2.413z M2,30V1.998h14v6.001h6
			v6.06c-0.863,0.095-1.688,0.311-2.461,0.633C18.956,14.013,18,14,18,14h-2l-2-2h-4l-2,2H6c0,0-2,0-2,2v6c0,2,2,2,2,2
			s4.531,0,8.058,0c0.267,2.42,1.493,4.548,3.29,6H2z M14.991,18.907c-0.333,0.651-0.589,1.347-0.756,2.077
			C13.685,21.604,12.892,22,12,22c-1.658,0-3-1.342-3-3c0-1.656,1.342-3,3-3C13.624,16,14.94,17.295,14.991,18.907z M23,30
			c-3.865-0.008-6.995-3.135-7-6.999c0.006-3.865,3.135-6.995,7-7.001c3.863,0.006,6.991,3.136,6.999,7.001
			C29.991,26.865,26.863,29.992,23,30z"/>
		<polygon style="fill:#010002;" points="24.002,22 24.002,18 22,18 22,22 18,22 18,24 22,24 22,28 24.002,28 24.002,24 28,24 
			28,22 		"/>
	</g>
</g>
<g>
</g>
<g>
</g>
<g>
</g>
<g>
</g>
<g>
</g>
<g>
</g>
<g>
</g>
<g>
</g>
<g>
</g>
<g>
</g>
<g>
</g>
<g>
</g>
<g>
</g>
<g>
</g>
<g>
</g>
</svg>
