<svg height="496pt" viewBox="0 0 496 496" width="496pt" xmlns="http://www.w3.org/2000/svg"><path d="m488 448h-8v-264c0-4.425781-3.585938-8-8-8h-64c-4.414062 0-8 3.574219-8 8v264h-16v-168c0-4.425781-3.585938-8-8-8h-64c-4.414062 0-8 3.574219-8 8v168h-16v-104c0-4.425781-3.585938-8-8-8h-64c-4.414062 0-8 3.574219-8 8v104h-16v-56c0-4.425781-3.585938-8-8-8h-64c-4.414062 0-8 3.574219-8 8v56h-64v-440c0-4.425781-3.585938-8-8-8h-32c-4.414062 0-8 3.574219-8 8v480c0 4.425781 3.585938 8 8 8h480c4.414062 0 8-3.574219 8-8v-32c0-4.425781-3.585938-8-8-8zm-72-256h48v256h-48zm-96 96h48v160h-48zm-96 64h48v96h-48zm-96 48h48v48h-48zm352 80h-464v-464h16v440c0 4.425781 3.585938 8 8 8h440zm0 0"/><path d="m160 192c52.9375 0 96-43.0625 96-96s-43.0625-96-96-96-96 43.0625-96 96 43.0625 96 96 96zm80-96h-72v-79.59375c40.367188 4.027344 72 38.1875 72 79.59375zm-88-79.59375v69.785156l-50.34375-44.75c12.894531-13.785156 30.535156-23.058594 50.34375-25.035156zm-60.070312 37.785156 62.757812 55.785156.046875-.054687c1.410156 1.253906 3.226563 2.078125 5.265625 2.078125h78.382812c-7.429687 36.472656-39.75 64-78.382812 64-44.113281 0-80-35.886719-80-80 0-15.335938 4.414062-29.625 11.929688-41.808594zm0 0"/><path d="m488 88h-48v16h28.6875l-24 24h-29.824219c-3.574219-13.769531-16-24-30.863281-24-17.648438 0-32 14.351562-32 32 0 9 3.761719 17.113281 9.761719 22.9375l-22.28125 33.421875c-1.152344-.136719-2.289063-.359375-3.480469-.359375-14.863281 0-27.289062 10.230469-30.863281 24h-34.273438c-3.574219-13.769531-16-24-30.863281-24-17.648438 0-32 14.351562-32 32 0 6.289062 1.886719 12.121094 5.03125 17.0625l-45.839844 58.945312c-4.542968-2.472656-9.664062-4.007812-15.191406-4.007812-14.863281 0-27.289062 10.230469-30.863281 24h-41.136719v16h41.136719c3.574219 13.769531 16 24 30.863281 24 17.648438 0 32-14.351562 32-32 0-6.289062-1.886719-12.121094-5.03125-17.0625l45.839844-58.945312c4.542968 2.472656 9.664062 4.007812 15.191406 4.007812 14.863281 0 27.289062-10.230469 30.863281-24h34.273438c3.574219 13.769531 16 24 30.863281 24 17.648438 0 32-14.351562 32-32 0-10.601562-5.238281-19.945312-13.207031-25.769531l20.960937-31.4375c2.644532.703125 5.375 1.207031 8.246094 1.207031 14.863281 0 27.289062-10.230469 30.863281-24h33.136719c2.121094 0 4.160156-.839844 5.65625-2.34375l26.34375-26.34375v28.6875h16v-48c0-4.425781-3.585938-8-8-8zm-336 256c-8.824219 0-16-7.175781-16-16s7.175781-16 16-16 16 7.175781 16 16-7.175781 16-16 16zm88-104c-8.824219 0-16-7.175781-16-16s7.175781-16 16-16 16 7.175781 16 16-7.175781 16-16 16zm96 0c-8.824219 0-16-7.175781-16-16s7.175781-16 16-16 16 7.175781 16 16-7.175781 16-16 16zm48-88c-8.824219 0-16-7.175781-16-16s7.175781-16 16-16 16 7.175781 16 16-7.175781 16-16 16zm0 0"/></svg>