<?xml version="1.0" encoding="iso-8859-1"?>
<!-- Generator: Adobe Illustrator 19.0.0, SVG Export Plug-In . SVG Version: 6.00 Build 0)  -->
<svg version="1.1" id="Capa_1" xmlns="http://www.w3.org/2000/svg" xmlns:xlink="http://www.w3.org/1999/xlink" x="0px" y="0px"
	 viewBox="0 0 512 512" style="enable-background:new 0 0 512 512;" xml:space="preserve">
<g>
	<g>
		<path d="M421,61V0H31v451h60v61h390V61H421z M61,421V30h330v391H61z M451,482H121v-31h300V91h30V482z"/>
	</g>
</g>
<g>
	<g>
		<path d="M91,61v90h270V61H91z M331,121H121V91h210V121z"/>
	</g>
</g>
<g>
	<g>
		<path d="M271,181v90h90v-90H271z M331,241h-30v-30h30V241z"/>
	</g>
</g>
<g>
	<g>
		<rect x="106" y="181" width="120" height="30"/>
	</g>
</g>
<g>
	<g>
		<rect x="106" y="241" width="120" height="30"/>
	</g>
</g>
<g>
	<g>
		<rect x="106" y="301" width="240" height="30"/>
	</g>
</g>
<g>
	<g>
		<rect x="106" y="361" width="240" height="30"/>
	</g>
</g>
<g>
</g>
<g>
</g>
<g>
</g>
<g>
</g>
<g>
</g>
<g>
</g>
<g>
</g>
<g>
</g>
<g>
</g>
<g>
</g>
<g>
</g>
<g>
</g>
<g>
</g>
<g>
</g>
<g>
</g>
</svg>
