<?xml version="1.0"?>
<svg xmlns="http://www.w3.org/2000/svg" viewBox="0 0 50 50" enable-background="new 0 0 50 50">
    <path style="text-indent:0;text-align:start;line-height:normal;text-transform:none;block-progression:tb;-inkscape-font-specification:Bitstream Vera Sans" d="M 5 5 L 5 6 L 5 12 L 5 13 L 6 13 L 12 13 L 13 13 L 13 12 L 13 6 L 13 5 L 12 5 L 6 5 L 5 5 z M 17 6 L 17 8 L 44 8 L 44 6 L 17 6 z M 7 7 L 11 7 L 11 11 L 7 11 L 7 7 z M 17 10 L 17 12 L 40 12 L 40 10 L 17 10 z M 5 21 L 5 22 L 5 28 L 5 29 L 6 29 L 12 29 L 13 29 L 13 28 L 13 22 L 13 21 L 12 21 L 6 21 L 5 21 z M 17 22 L 17 24 L 44 24 L 44 22 L 17 22 z M 7 23 L 11 23 L 11 27 L 7 27 L 7 23 z M 17 26 L 17 28 L 40 28 L 40 26 L 17 26 z M 5 37 L 5 38 L 5 44 L 5 45 L 6 45 L 12 45 L 13 45 L 13 44 L 13 38 L 13 37 L 12 37 L 6 37 L 5 37 z M 17 38 L 17 40 L 44 40 L 44 38 L 17 38 z M 7 39 L 11 39 L 11 43 L 7 43 L 7 39 z M 17 42 L 17 44 L 40 44 L 40 42 L 17 42 z"/>
</svg>
