<?xml version="1.0"?>
<svg xmlns="http://www.w3.org/2000/svg" viewBox="0 0 50 50" enable-background="new 0 0 50 50">
    <path style="text-indent:0;text-align:start;line-height:normal;text-transform:none;block-progression:tb;-inkscape-font-specification:Bitstream Vera Sans" d="M 7 2 L 7 3 L 7 47 L 7 48 L 8 48 L 42 48 L 43 48 L 43 47 L 43 3 L 43 2 L 42 2 L 8 2 L 7 2 z M 9 4 L 41 4 L 41 46 L 9 46 L 9 4 z M 15 12 L 15 14 L 35 14 L 35 12 L 15 12 z M 15 22 L 15 24 L 28 24 L 28 22 L 15 22 z M 32 22 L 32 24 L 35 24 L 35 22 L 32 22 z M 15 28 L 15 30 L 23 30 L 23 28 L 15 28 z M 32 28 L 32 30 L 35 30 L 35 28 L 32 28 z M 15 34 L 15 36 L 28 36 L 28 34 L 15 34 z M 32 34 L 32 36 L 35 36 L 35 34 L 32 34 z"/>
</svg>
